<svg width="962" height="321" viewBox="0 0 962 321" fill="none" xmlns="http://www.w3.org/2000/svg">
<rect width="962" height="321" fill="#F5F5F5"/>
<mask id="mask0_0_1" style="mask-type:alpha" maskUnits="userSpaceOnUse" x="141" y="0" width="678" height="321">
<ellipse cx="480" cy="160.5" rx="339" ry="160.5" fill="#5CCFF3"/>
</mask>
<g mask="url(#mask0_0_1)">
<ellipse cx="480" cy="160.5" rx="339" ry="160.5" fill="#0A6396"/>
<g filter="url(#filter0_f_0_1)">
<ellipse cx="481.5" cy="147" rx="329.5" ry="147" fill="#2095D8"/>
</g>
<g filter="url(#filter1_f_0_1)">
<ellipse cx="480.5" cy="125" rx="310.5" ry="115" fill="#81D9FF"/>
</g>
</g>
<path d="M394.273 297.583C561.762 327.067 687.01 256.844 687.01 256.844C582.98 293.239 320.95 290.998 208.587 207.333C208.587 207.333 293.336 285.983 394.273 297.583Z" fill="#DEEFFF" fill-opacity="0.3"/>
<mask id="path-6-outside-1_0_1" maskUnits="userSpaceOnUse" x="0" y="90.3125" width="962" height="163" fill="black">
<rect fill="white" y="90.3125" width="962" height="163"/>
<path d="M24 107.5C26.4612 105.251 61.5657 106.891 83.8521 108.177C95.4817 108.847 107.345 116.305 102.062 126.687V126.687C96.625 137.375 44.5 128.5 40.5 131.937V131.937C33.9344 137.58 44.9113 146.187 53.5682 146.187H81.798C90.3459 146.187 100.264 149.411 98.6086 157.797C98.2013 159.859 97.3883 162.247 96 165C90.9688 174.976 65.3205 172.31 50.0925 169.744C44.2365 168.757 38.6875 173.197 38.6875 179.136V179.136C38.6875 184.715 43.6017 189.027 49.1455 188.402C64.2071 186.702 90.777 184.326 96 188V188C105.856 194.932 94.4457 208.185 82.4478 209.299C62.7572 211.128 35.4317 212.683 29.5 208C20 200.5 13 204.375 13 157.188C13 110 20.375 110.812 24 107.5Z"/>
<path d="M123.562 142.5C123.562 137.391 127.704 133.25 132.813 133.25H139.819C141.058 133.25 142.063 134.255 142.063 135.494V135.494C142.063 137.247 143.991 138.334 145.544 137.52C148.954 135.733 152.293 134.435 155.563 133.625C159.979 132.5 164.292 131.937 168.5 131.937C174.375 131.937 179.771 132.875 184.688 134.75C186.521 135.449 188.255 136.281 189.892 137.247C194.563 140.003 200.539 140.576 205.313 138V138C207.938 136.542 210.563 135.375 213.188 134.5C215.813 133.583 218.479 132.937 221.188 132.562C223.896 132.146 226.688 131.937 229.563 131.937C235.604 131.937 241.083 132.771 246 134.437C250.917 136.062 255.104 138.5 258.563 141.75C262.063 145 264.75 149.062 266.625 153.937C268.542 158.771 269.5 164.375 269.5 170.75V197.781C269.5 202.873 265.373 207 260.281 207V207C255.19 207 251.063 202.873 251.063 197.781V173.75C251.063 169.708 250.479 166.104 249.313 162.938C248.188 159.729 246.583 157.042 244.5 154.875C242.458 152.667 240 151 237.125 149.875C234.292 148.708 231.167 148.125 227.75 148.125C225.875 148.125 223.958 148.312 222 148.687C220.042 149.021 218.125 149.562 216.25 150.312C214.417 151.062 212.688 152.021 211.063 153.187V153.187C207.942 155.348 206.813 159.25 206.813 163.046V197.781C206.813 202.873 202.685 207 197.594 207V207C192.502 207 188.375 202.873 188.375 197.781V173.75C188.375 169.708 187.792 166.104 186.625 162.938C185.5 159.729 183.896 157.042 181.813 154.875C179.771 152.667 177.292 151 174.375 149.875C171.5 148.708 168.333 148.125 164.875 148.125C162.75 148.125 160.604 148.354 158.438 148.812C156.313 149.229 154.25 149.833 152.25 150.625C150.292 151.417 148.438 152.375 146.688 153.5V153.5C143.471 155.618 142.063 159.467 142.063 163.318V197.75C142.063 202.859 137.921 207 132.813 207V207C127.704 207 123.562 202.859 123.562 197.75V142.5Z"/>
<path d="M310.813 227.875C310.813 232.984 306.671 237.125 301.563 237.125V237.125C296.454 237.125 292.313 232.984 292.313 227.875V142.5C292.313 137.391 296.454 133.25 301.563 133.25H308.427C309.745 133.25 310.813 134.318 310.813 135.635V135.635C310.813 137.559 313.015 138.748 314.731 137.878C315.318 137.58 315.928 137.287 316.563 137C318.771 136 321.146 135.125 323.688 134.375C326.229 133.625 328.854 133.042 331.563 132.625C334.271 132.167 336.979 131.937 339.688 131.937C345.938 131.937 351.667 132.854 356.875 134.687C362.125 136.521 366.625 139.104 370.375 142.437C374.125 145.771 377.042 149.771 379.125 154.437C381.25 159.062 382.313 164.188 382.313 169.812C382.313 175.688 381.208 181 379 185.75C376.792 190.458 373.729 194.5 369.813 197.875C365.938 201.208 361.313 203.792 355.938 205.625C350.604 207.417 344.813 208.312 338.563 208.312C335.896 208.312 333.25 208.146 330.625 207.812C328.042 207.479 325.542 207.021 323.125 206.438C320.75 205.854 318.5 205.167 316.375 204.375V204.375C313.837 203.36 310.813 205.138 310.813 207.871V227.875ZM310.813 176.743C310.813 181.211 312.754 185.627 316.75 187.625V187.625C318.833 188.667 320.958 189.521 323.125 190.188C325.292 190.854 327.479 191.354 329.688 191.688C331.896 191.979 334.042 192.125 336.125 192.125C340.375 192.125 344.146 191.562 347.438 190.438C350.771 189.271 353.563 187.688 355.813 185.688C358.104 183.688 359.854 181.333 361.063 178.625C362.271 175.917 362.875 172.979 362.875 169.812C362.875 166.854 362.271 164.062 361.063 161.438C359.896 158.812 358.188 156.521 355.938 154.562C353.729 152.562 351.042 151 347.875 149.875C344.75 148.708 341.229 148.125 337.313 148.125C334.813 148.125 332.313 148.375 329.813 148.875C327.313 149.333 324.896 150 322.563 150.875C320.271 151.75 318.104 152.812 316.063 154.062V154.062C312.402 156.35 310.813 160.665 310.813 164.982V176.743Z"/>
<path d="M400.313 112.563C400.313 107.454 404.454 103.312 409.563 103.312V103.312C414.671 103.312 418.813 107.454 418.813 112.563V197.75C418.813 202.859 414.671 207 409.563 207V207C404.454 207 400.313 202.859 400.313 197.75V112.563Z"/>
<path d="M438.125 170.125C438.125 164.833 439.188 159.875 441.313 155.25C443.479 150.625 446.542 146.583 450.5 143.125C454.5 139.667 459.313 136.937 464.938 134.937C470.604 132.937 476.958 131.937 484 131.937C491.042 131.937 497.375 132.937 503 134.937C508.667 136.937 513.479 139.667 517.438 143.125C521.438 146.583 524.5 150.625 526.625 155.25C528.791 159.875 529.875 164.833 529.875 170.125C529.875 175.417 528.791 180.375 526.625 185C524.5 189.625 521.438 193.667 517.438 197.125C513.479 200.583 508.667 203.312 503 205.312C497.375 207.312 491.042 208.312 484 208.312C476.958 208.312 470.604 207.312 464.938 205.312C459.313 203.312 454.5 200.583 450.5 197.125C446.542 193.667 443.479 189.625 441.313 185C439.188 180.375 438.125 175.417 438.125 170.125ZM457.563 170.125C457.563 173.083 458.146 175.896 459.313 178.562C460.521 181.188 462.25 183.521 464.5 185.562C466.792 187.562 469.563 189.167 472.813 190.375C476.104 191.542 479.833 192.125 484 192.125C488.167 192.125 491.875 191.542 495.125 190.375C498.417 189.167 501.188 187.562 503.438 185.562C505.729 183.521 507.458 181.188 508.625 178.562C509.833 175.896 510.438 173.083 510.438 170.125C510.438 167.167 509.833 164.354 508.625 161.688C507.458 159.021 505.729 156.687 503.438 154.687C501.188 152.646 498.417 151.042 495.125 149.875C491.875 148.667 488.167 148.062 484 148.062C479.833 148.062 476.104 148.667 472.813 149.875C469.563 151.042 466.792 152.646 464.5 154.687C462.25 156.687 460.521 159.021 459.313 161.688C458.146 164.354 457.563 167.167 457.563 170.125Z"/>
<path d="M554.522 222.733C556.016 219.337 560.212 218.109 563.625 219.562V219.562C565.875 220.521 568.208 221.313 570.625 221.938C573.083 222.563 575.583 223.021 578.125 223.313C580.666 223.646 583.187 223.813 585.687 223.813C594.187 223.813 600.729 221.979 605.312 218.313C609.937 214.688 612.25 209.229 612.25 201.938V201.938C612.25 200.881 611.053 200.246 610.142 200.781C609.084 201.404 607.953 201.998 606.75 202.562C604.75 203.479 602.583 204.271 600.25 204.938C597.958 205.604 595.521 206.125 592.937 206.5C590.396 206.833 587.812 207 585.187 207C579.562 207 574.521 206.188 570.062 204.562C565.646 202.896 561.896 200.479 558.812 197.312C555.771 194.104 553.437 190.167 551.812 185.5C550.187 180.833 549.375 175.5 549.375 169.5V142.469C549.375 137.377 553.502 133.25 558.594 133.25V133.25C563.685 133.25 567.812 137.377 567.812 142.469V164.375C567.812 173.292 569.5 179.875 572.875 184.125C576.291 188.333 581.666 190.438 589 190.438C594.166 190.438 598.729 189.542 602.687 187.75V187.75C609.704 184.534 612.25 176.52 612.25 168.801V142.5C612.25 137.391 616.391 133.25 621.5 133.25V133.25C626.608 133.25 630.75 137.391 630.75 142.5V198.562C630.75 205.604 629.75 211.708 627.75 216.875C625.75 222.083 622.833 226.396 619 229.813C615.208 233.229 610.541 235.771 605 237.438C599.458 239.146 593.166 240 586.125 240C579.25 240 572.833 239.271 566.875 237.813C563.589 237.008 560.455 236.046 557.473 234.924C553.477 233.422 551.847 228.812 553.566 224.906L554.522 222.733Z"/>
<path d="M651.187 169.875C651.187 164.875 652.208 160.104 654.25 155.563C656.291 150.979 659.229 146.937 663.062 143.437C666.896 139.937 671.583 137.146 677.125 135.062C682.708 132.979 689.041 131.937 696.125 131.937C703.166 131.937 709.5 133 715.125 135.125C720.791 137.208 725.583 140.083 729.5 143.75C733.458 147.417 736.479 151.729 738.562 156.688C740.687 161.646 741.75 166.958 741.75 172.625C741.75 173.333 741.729 174.104 741.687 174.938V174.938C741.687 176.19 740.622 177.125 739.37 177.125H679.027C675.513 177.125 673.198 180.646 675.625 183.188V183.188C677.416 185.021 679.646 186.604 682.312 187.938C684.979 189.271 688.062 190.312 691.562 191.062C695.062 191.771 698.937 192.125 703.187 192.125C707.437 192.125 711.666 191.688 715.875 190.812C717.534 190.451 719.164 190.054 720.765 189.621C724.855 188.516 729.265 190.375 730.979 194.25V194.25C732.761 198.276 730.968 203.046 726.812 204.5V204.5C724.354 205.333 721.771 206.042 719.062 206.625C716.396 207.167 713.583 207.583 710.625 207.875C707.708 208.167 704.625 208.312 701.375 208.312C693.083 208.312 685.812 207.312 679.562 205.312C673.312 203.312 668.083 200.583 663.875 197.125C659.666 193.667 656.5 189.604 654.375 184.938C652.25 180.271 651.187 175.25 651.187 169.875ZM715.599 162.688C718.818 162.688 721.025 159.502 719 157V157C717.625 155.208 715.896 153.667 713.812 152.375C711.729 151.042 709.312 150 706.562 149.25C703.812 148.5 700.791 148.125 697.5 148.125C694 148.125 690.812 148.521 687.937 149.312C685.062 150.104 682.541 151.167 680.375 152.5C678.208 153.833 676.396 155.375 674.937 157.125V157.125C672.958 159.571 675.08 162.688 678.226 162.688H715.599Z"/>
<path d="M758.187 169.875C758.187 164.875 759.208 160.104 761.25 155.563C763.291 150.979 766.229 146.937 770.062 143.437C773.896 139.937 778.583 137.146 784.125 135.062C789.708 132.979 796.041 131.937 803.125 131.937C810.166 131.937 816.5 133 822.125 135.125C827.791 137.208 832.583 140.083 836.5 143.75C840.458 147.417 843.479 151.729 845.562 156.688C847.687 161.646 848.75 166.958 848.75 172.625C848.75 173.333 848.729 174.104 848.687 174.938V174.938C848.687 176.19 847.622 177.125 846.37 177.125H786.027C782.513 177.125 780.198 180.646 782.625 183.188V183.188C784.416 185.021 786.646 186.604 789.312 187.938C791.979 189.271 795.062 190.312 798.562 191.062C802.062 191.771 805.937 192.125 810.187 192.125C814.437 192.125 818.666 191.688 822.875 190.812C824.534 190.451 826.164 190.054 827.765 189.621C831.855 188.516 836.265 190.375 837.979 194.25V194.25C839.761 198.276 837.968 203.046 833.812 204.5V204.5C831.354 205.333 828.771 206.042 826.062 206.625C823.396 207.167 820.583 207.583 817.625 207.875C814.708 208.167 811.625 208.312 808.375 208.312C800.083 208.312 792.812 207.312 786.562 205.312C780.312 203.312 775.083 200.583 770.875 197.125C766.666 193.667 763.5 189.604 761.375 184.938C759.25 180.271 758.187 175.25 758.187 169.875ZM822.599 162.688C825.818 162.688 828.025 159.502 826 157V157C824.625 155.208 822.896 153.667 820.812 152.375C818.729 151.042 816.312 150 813.562 149.25C810.812 148.5 807.791 148.125 804.5 148.125C801 148.125 797.812 148.521 794.937 149.312C792.062 150.104 789.541 151.167 787.375 152.5C785.208 153.833 783.396 155.375 781.937 157.125V157.125C779.958 159.571 782.08 162.688 785.226 162.688H822.599Z"/>
<path d="M867.642 191.344C869.828 187.52 874.719 186.292 878.785 187.988C881.75 189.226 884.864 190.23 888.125 191C894.125 192.417 900.271 193.125 906.562 193.125C910.812 193.125 914.354 192.833 917.187 192.25C920.021 191.667 922.291 190.917 924 190C925.708 189.083 926.916 188.042 927.625 186.875C928.333 185.708 928.687 184.521 928.687 183.312C928.687 181.562 927.916 180.062 926.375 178.812C924.875 177.562 922.375 176.938 918.875 176.938C917.25 176.938 915.5 177.042 913.625 177.25C911.75 177.458 909.771 177.688 907.687 177.938C905.646 178.146 903.5 178.354 901.25 178.562C899.041 178.771 896.791 178.875 894.5 178.875C889.5 178.875 885.229 178.333 881.687 177.25C878.187 176.167 875.333 174.688 873.125 172.812C870.916 170.938 869.312 168.729 868.312 166.187C867.312 163.604 866.812 160.833 866.812 157.875C866.812 154.125 867.687 150.667 869.437 147.5C871.187 144.333 873.687 141.604 876.937 139.312C880.187 136.979 884.104 135.167 888.687 133.875C893.312 132.583 898.458 131.937 904.125 131.937C907.083 131.937 910.166 132.125 913.375 132.5C916.625 132.833 919.812 133.292 922.937 133.875C926.062 134.458 929.062 135.146 931.937 135.937C931.976 135.948 932.015 135.958 932.054 135.968C936.26 137.071 938.235 141.658 936.605 145.69V145.69C935.015 149.621 930.594 151.54 926.521 150.358C924.222 149.691 921.924 149.113 919.625 148.625C914.958 147.583 910.146 147.062 905.187 147.062C901.729 147.062 898.791 147.333 896.375 147.875C894 148.375 892.062 149.062 890.562 149.937C889.062 150.771 887.958 151.75 887.25 152.875C886.583 153.958 886.25 155.104 886.25 156.312C886.25 157.188 886.416 157.979 886.75 158.688C887.125 159.396 887.708 160.021 888.5 160.562C889.333 161.062 890.396 161.458 891.687 161.75C893.021 162 894.646 162.125 896.562 162.125C898.312 162.125 900.166 162.021 902.125 161.813C904.083 161.604 906.125 161.396 908.25 161.188C910.375 160.938 912.562 160.708 914.812 160.5C917.104 160.292 919.437 160.188 921.812 160.188C926.229 160.188 930.083 160.708 933.375 161.75C936.708 162.792 939.458 164.25 941.625 166.125C943.791 168 945.416 170.208 946.5 172.75C947.583 175.292 948.125 178.062 948.125 181.062C948.125 184.938 947.229 188.542 945.437 191.875C943.646 195.208 940.979 198.104 937.437 200.562C933.896 202.979 929.479 204.875 924.187 206.25C918.937 207.625 912.854 208.312 905.937 208.312C901.687 208.312 897.583 208.042 893.625 207.5C889.666 207 885.896 206.312 882.312 205.438C878.729 204.521 875.354 203.458 872.187 202.25C871.778 202.092 871.372 201.932 870.972 201.77C866.861 200.114 865.443 195.193 867.642 191.344V191.344Z"/>
</mask>
<path d="M24 107.5C26.4612 105.251 61.5657 106.891 83.8521 108.177C95.4817 108.847 107.345 116.305 102.062 126.687V126.687C96.625 137.375 44.5 128.5 40.5 131.937V131.937C33.9344 137.58 44.9113 146.187 53.5682 146.187H81.798C90.3459 146.187 100.264 149.411 98.6086 157.797C98.2013 159.859 97.3883 162.247 96 165C90.9688 174.976 65.3205 172.31 50.0925 169.744C44.2365 168.757 38.6875 173.197 38.6875 179.136V179.136C38.6875 184.715 43.6017 189.027 49.1455 188.402C64.2071 186.702 90.777 184.326 96 188V188C105.856 194.932 94.4457 208.185 82.4478 209.299C62.7572 211.128 35.4317 212.683 29.5 208C20 200.5 13 204.375 13 157.188C13 110 20.375 110.812 24 107.5Z" fill="#DEEFFF"/>
<path d="M123.562 142.5C123.562 137.391 127.704 133.25 132.813 133.25H139.819C141.058 133.25 142.063 134.255 142.063 135.494V135.494C142.063 137.247 143.991 138.334 145.544 137.52C148.954 135.733 152.293 134.435 155.563 133.625C159.979 132.5 164.292 131.937 168.5 131.937C174.375 131.937 179.771 132.875 184.688 134.75C186.521 135.449 188.255 136.281 189.892 137.247C194.563 140.003 200.539 140.576 205.313 138V138C207.938 136.542 210.563 135.375 213.188 134.5C215.813 133.583 218.479 132.937 221.188 132.562C223.896 132.146 226.688 131.937 229.563 131.937C235.604 131.937 241.083 132.771 246 134.437C250.917 136.062 255.104 138.5 258.563 141.75C262.063 145 264.75 149.062 266.625 153.937C268.542 158.771 269.5 164.375 269.5 170.75V197.781C269.5 202.873 265.373 207 260.281 207V207C255.19 207 251.063 202.873 251.063 197.781V173.75C251.063 169.708 250.479 166.104 249.313 162.938C248.188 159.729 246.583 157.042 244.5 154.875C242.458 152.667 240 151 237.125 149.875C234.292 148.708 231.167 148.125 227.75 148.125C225.875 148.125 223.958 148.312 222 148.687C220.042 149.021 218.125 149.562 216.25 150.312C214.417 151.062 212.688 152.021 211.063 153.187V153.187C207.942 155.348 206.813 159.25 206.813 163.046V197.781C206.813 202.873 202.685 207 197.594 207V207C192.502 207 188.375 202.873 188.375 197.781V173.75C188.375 169.708 187.792 166.104 186.625 162.938C185.5 159.729 183.896 157.042 181.813 154.875C179.771 152.667 177.292 151 174.375 149.875C171.5 148.708 168.333 148.125 164.875 148.125C162.75 148.125 160.604 148.354 158.438 148.812C156.313 149.229 154.25 149.833 152.25 150.625C150.292 151.417 148.438 152.375 146.688 153.5V153.5C143.471 155.618 142.063 159.467 142.063 163.318V197.75C142.063 202.859 137.921 207 132.813 207V207C127.704 207 123.562 202.859 123.562 197.75V142.5Z" fill="#DEEFFF"/>
<path d="M310.813 227.875C310.813 232.984 306.671 237.125 301.563 237.125V237.125C296.454 237.125 292.313 232.984 292.313 227.875V142.5C292.313 137.391 296.454 133.25 301.563 133.25H308.427C309.745 133.25 310.813 134.318 310.813 135.635V135.635C310.813 137.559 313.015 138.748 314.731 137.878C315.318 137.58 315.928 137.287 316.563 137C318.771 136 321.146 135.125 323.688 134.375C326.229 133.625 328.854 133.042 331.563 132.625C334.271 132.167 336.979 131.937 339.688 131.937C345.938 131.937 351.667 132.854 356.875 134.687C362.125 136.521 366.625 139.104 370.375 142.437C374.125 145.771 377.042 149.771 379.125 154.437C381.25 159.062 382.313 164.188 382.313 169.812C382.313 175.688 381.208 181 379 185.75C376.792 190.458 373.729 194.5 369.813 197.875C365.938 201.208 361.313 203.792 355.938 205.625C350.604 207.417 344.813 208.312 338.563 208.312C335.896 208.312 333.25 208.146 330.625 207.812C328.042 207.479 325.542 207.021 323.125 206.438C320.75 205.854 318.5 205.167 316.375 204.375V204.375C313.837 203.36 310.813 205.138 310.813 207.871V227.875ZM310.813 176.743C310.813 181.211 312.754 185.627 316.75 187.625V187.625C318.833 188.667 320.958 189.521 323.125 190.188C325.292 190.854 327.479 191.354 329.688 191.688C331.896 191.979 334.042 192.125 336.125 192.125C340.375 192.125 344.146 191.562 347.438 190.438C350.771 189.271 353.563 187.688 355.813 185.688C358.104 183.688 359.854 181.333 361.063 178.625C362.271 175.917 362.875 172.979 362.875 169.812C362.875 166.854 362.271 164.062 361.063 161.438C359.896 158.812 358.188 156.521 355.938 154.562C353.729 152.562 351.042 151 347.875 149.875C344.75 148.708 341.229 148.125 337.313 148.125C334.813 148.125 332.313 148.375 329.813 148.875C327.313 149.333 324.896 150 322.563 150.875C320.271 151.75 318.104 152.812 316.063 154.062V154.062C312.402 156.35 310.813 160.665 310.813 164.982V176.743Z" fill="#DEEFFF"/>
<path d="M400.313 112.563C400.313 107.454 404.454 103.312 409.563 103.312V103.312C414.671 103.312 418.813 107.454 418.813 112.563V197.75C418.813 202.859 414.671 207 409.563 207V207C404.454 207 400.313 202.859 400.313 197.75V112.563Z" fill="#DEEFFF"/>
<path d="M438.125 170.125C438.125 164.833 439.188 159.875 441.313 155.25C443.479 150.625 446.542 146.583 450.5 143.125C454.5 139.667 459.313 136.937 464.938 134.937C470.604 132.937 476.958 131.937 484 131.937C491.042 131.937 497.375 132.937 503 134.937C508.667 136.937 513.479 139.667 517.438 143.125C521.438 146.583 524.5 150.625 526.625 155.25C528.791 159.875 529.875 164.833 529.875 170.125C529.875 175.417 528.791 180.375 526.625 185C524.5 189.625 521.438 193.667 517.438 197.125C513.479 200.583 508.667 203.312 503 205.312C497.375 207.312 491.042 208.312 484 208.312C476.958 208.312 470.604 207.312 464.938 205.312C459.313 203.312 454.5 200.583 450.5 197.125C446.542 193.667 443.479 189.625 441.313 185C439.188 180.375 438.125 175.417 438.125 170.125ZM457.563 170.125C457.563 173.083 458.146 175.896 459.313 178.562C460.521 181.188 462.25 183.521 464.5 185.562C466.792 187.562 469.563 189.167 472.813 190.375C476.104 191.542 479.833 192.125 484 192.125C488.167 192.125 491.875 191.542 495.125 190.375C498.417 189.167 501.188 187.562 503.438 185.562C505.729 183.521 507.458 181.188 508.625 178.562C509.833 175.896 510.438 173.083 510.438 170.125C510.438 167.167 509.833 164.354 508.625 161.688C507.458 159.021 505.729 156.687 503.438 154.687C501.188 152.646 498.417 151.042 495.125 149.875C491.875 148.667 488.167 148.062 484 148.062C479.833 148.062 476.104 148.667 472.813 149.875C469.563 151.042 466.792 152.646 464.5 154.687C462.25 156.687 460.521 159.021 459.313 161.688C458.146 164.354 457.563 167.167 457.563 170.125Z" fill="#DEEFFF"/>
<path d="M554.522 222.733C556.016 219.337 560.212 218.109 563.625 219.562V219.562C565.875 220.521 568.208 221.313 570.625 221.938C573.083 222.563 575.583 223.021 578.125 223.313C580.666 223.646 583.187 223.813 585.687 223.813C594.187 223.813 600.729 221.979 605.312 218.313C609.937 214.688 612.25 209.229 612.25 201.938V201.938C612.25 200.881 611.053 200.246 610.142 200.781C609.084 201.404 607.953 201.998 606.75 202.562C604.75 203.479 602.583 204.271 600.25 204.938C597.958 205.604 595.521 206.125 592.937 206.5C590.396 206.833 587.812 207 585.187 207C579.562 207 574.521 206.188 570.062 204.562C565.646 202.896 561.896 200.479 558.812 197.312C555.771 194.104 553.437 190.167 551.812 185.5C550.187 180.833 549.375 175.5 549.375 169.5V142.469C549.375 137.377 553.502 133.25 558.594 133.25V133.25C563.685 133.25 567.812 137.377 567.812 142.469V164.375C567.812 173.292 569.5 179.875 572.875 184.125C576.291 188.333 581.666 190.438 589 190.438C594.166 190.438 598.729 189.542 602.687 187.75V187.75C609.704 184.534 612.25 176.52 612.25 168.801V142.5C612.25 137.391 616.391 133.25 621.5 133.25V133.25C626.608 133.25 630.75 137.391 630.75 142.5V198.562C630.75 205.604 629.75 211.708 627.75 216.875C625.75 222.083 622.833 226.396 619 229.813C615.208 233.229 610.541 235.771 605 237.438C599.458 239.146 593.166 240 586.125 240C579.25 240 572.833 239.271 566.875 237.813C563.589 237.008 560.455 236.046 557.473 234.924C553.477 233.422 551.847 228.812 553.566 224.906L554.522 222.733Z" fill="#DEEFFF"/>
<path d="M651.187 169.875C651.187 164.875 652.208 160.104 654.25 155.563C656.291 150.979 659.229 146.937 663.062 143.437C666.896 139.937 671.583 137.146 677.125 135.062C682.708 132.979 689.041 131.937 696.125 131.937C703.166 131.937 709.5 133 715.125 135.125C720.791 137.208 725.583 140.083 729.5 143.75C733.458 147.417 736.479 151.729 738.562 156.688C740.687 161.646 741.75 166.958 741.75 172.625C741.75 173.333 741.729 174.104 741.687 174.938V174.938C741.687 176.19 740.622 177.125 739.37 177.125H679.027C675.513 177.125 673.198 180.646 675.625 183.188V183.188C677.416 185.021 679.646 186.604 682.312 187.938C684.979 189.271 688.062 190.312 691.562 191.062C695.062 191.771 698.937 192.125 703.187 192.125C707.437 192.125 711.666 191.688 715.875 190.812C717.534 190.451 719.164 190.054 720.765 189.621C724.855 188.516 729.265 190.375 730.979 194.25V194.25C732.761 198.276 730.968 203.046 726.812 204.5V204.5C724.354 205.333 721.771 206.042 719.062 206.625C716.396 207.167 713.583 207.583 710.625 207.875C707.708 208.167 704.625 208.312 701.375 208.312C693.083 208.312 685.812 207.312 679.562 205.312C673.312 203.312 668.083 200.583 663.875 197.125C659.666 193.667 656.5 189.604 654.375 184.938C652.25 180.271 651.187 175.25 651.187 169.875ZM715.599 162.688C718.818 162.688 721.025 159.502 719 157V157C717.625 155.208 715.896 153.667 713.812 152.375C711.729 151.042 709.312 150 706.562 149.25C703.812 148.5 700.791 148.125 697.5 148.125C694 148.125 690.812 148.521 687.937 149.312C685.062 150.104 682.541 151.167 680.375 152.5C678.208 153.833 676.396 155.375 674.937 157.125V157.125C672.958 159.571 675.08 162.688 678.226 162.688H715.599Z" fill="#DEEFFF"/>
<path d="M758.187 169.875C758.187 164.875 759.208 160.104 761.25 155.563C763.291 150.979 766.229 146.937 770.062 143.437C773.896 139.937 778.583 137.146 784.125 135.062C789.708 132.979 796.041 131.937 803.125 131.937C810.166 131.937 816.5 133 822.125 135.125C827.791 137.208 832.583 140.083 836.5 143.75C840.458 147.417 843.479 151.729 845.562 156.688C847.687 161.646 848.75 166.958 848.75 172.625C848.75 173.333 848.729 174.104 848.687 174.938V174.938C848.687 176.19 847.622 177.125 846.37 177.125H786.027C782.513 177.125 780.198 180.646 782.625 183.188V183.188C784.416 185.021 786.646 186.604 789.312 187.938C791.979 189.271 795.062 190.312 798.562 191.062C802.062 191.771 805.937 192.125 810.187 192.125C814.437 192.125 818.666 191.688 822.875 190.812C824.534 190.451 826.164 190.054 827.765 189.621C831.855 188.516 836.265 190.375 837.979 194.25V194.25C839.761 198.276 837.968 203.046 833.812 204.5V204.5C831.354 205.333 828.771 206.042 826.062 206.625C823.396 207.167 820.583 207.583 817.625 207.875C814.708 208.167 811.625 208.312 808.375 208.312C800.083 208.312 792.812 207.312 786.562 205.312C780.312 203.312 775.083 200.583 770.875 197.125C766.666 193.667 763.5 189.604 761.375 184.938C759.25 180.271 758.187 175.25 758.187 169.875ZM822.599 162.688C825.818 162.688 828.025 159.502 826 157V157C824.625 155.208 822.896 153.667 820.812 152.375C818.729 151.042 816.312 150 813.562 149.25C810.812 148.5 807.791 148.125 804.5 148.125C801 148.125 797.812 148.521 794.937 149.312C792.062 150.104 789.541 151.167 787.375 152.5C785.208 153.833 783.396 155.375 781.937 157.125V157.125C779.958 159.571 782.08 162.688 785.226 162.688H822.599Z" fill="#DEEFFF"/>
<path d="M867.642 191.344C869.828 187.52 874.719 186.292 878.785 187.988C881.75 189.226 884.864 190.23 888.125 191C894.125 192.417 900.271 193.125 906.562 193.125C910.812 193.125 914.354 192.833 917.187 192.25C920.021 191.667 922.291 190.917 924 190C925.708 189.083 926.916 188.042 927.625 186.875C928.333 185.708 928.687 184.521 928.687 183.312C928.687 181.562 927.916 180.062 926.375 178.812C924.875 177.562 922.375 176.938 918.875 176.938C917.25 176.938 915.5 177.042 913.625 177.25C911.75 177.458 909.771 177.688 907.687 177.938C905.646 178.146 903.5 178.354 901.25 178.562C899.041 178.771 896.791 178.875 894.5 178.875C889.5 178.875 885.229 178.333 881.687 177.25C878.187 176.167 875.333 174.688 873.125 172.812C870.916 170.938 869.312 168.729 868.312 166.187C867.312 163.604 866.812 160.833 866.812 157.875C866.812 154.125 867.687 150.667 869.437 147.5C871.187 144.333 873.687 141.604 876.937 139.312C880.187 136.979 884.104 135.167 888.687 133.875C893.312 132.583 898.458 131.937 904.125 131.937C907.083 131.937 910.166 132.125 913.375 132.5C916.625 132.833 919.812 133.292 922.937 133.875C926.062 134.458 929.062 135.146 931.937 135.937C931.976 135.948 932.015 135.958 932.054 135.968C936.26 137.071 938.235 141.658 936.605 145.69V145.69C935.015 149.621 930.594 151.54 926.521 150.358C924.222 149.691 921.924 149.113 919.625 148.625C914.958 147.583 910.146 147.062 905.187 147.062C901.729 147.062 898.791 147.333 896.375 147.875C894 148.375 892.062 149.062 890.562 149.937C889.062 150.771 887.958 151.75 887.25 152.875C886.583 153.958 886.25 155.104 886.25 156.312C886.25 157.188 886.416 157.979 886.75 158.688C887.125 159.396 887.708 160.021 888.5 160.562C889.333 161.062 890.396 161.458 891.687 161.75C893.021 162 894.646 162.125 896.562 162.125C898.312 162.125 900.166 162.021 902.125 161.813C904.083 161.604 906.125 161.396 908.25 161.188C910.375 160.938 912.562 160.708 914.812 160.5C917.104 160.292 919.437 160.188 921.812 160.188C926.229 160.188 930.083 160.708 933.375 161.75C936.708 162.792 939.458 164.25 941.625 166.125C943.791 168 945.416 170.208 946.5 172.75C947.583 175.292 948.125 178.062 948.125 181.062C948.125 184.938 947.229 188.542 945.437 191.875C943.646 195.208 940.979 198.104 937.437 200.562C933.896 202.979 929.479 204.875 924.187 206.25C918.937 207.625 912.854 208.312 905.937 208.312C901.687 208.312 897.583 208.042 893.625 207.5C889.666 207 885.896 206.312 882.312 205.438C878.729 204.521 875.354 203.458 872.187 202.25C871.778 202.092 871.372 201.932 870.972 201.77C866.861 200.114 865.443 195.193 867.642 191.344V191.344Z" fill="#DEEFFF"/>
<path d="M24 107.5C26.4612 105.251 61.5657 106.891 83.8521 108.177C95.4817 108.847 107.345 116.305 102.062 126.687V126.687C96.625 137.375 44.5 128.5 40.5 131.937V131.937C33.9344 137.58 44.9113 146.187 53.5682 146.187H81.798C90.3459 146.187 100.264 149.411 98.6086 157.797C98.2013 159.859 97.3883 162.247 96 165C90.9688 174.976 65.3205 172.31 50.0925 169.744C44.2365 168.757 38.6875 173.197 38.6875 179.136V179.136C38.6875 184.715 43.6017 189.027 49.1455 188.402C64.2071 186.702 90.777 184.326 96 188V188C105.856 194.932 94.4457 208.185 82.4478 209.299C62.7572 211.128 35.4317 212.683 29.5 208C20 200.5 13 204.375 13 157.188C13 110 20.375 110.812 24 107.5Z" stroke="#688097" stroke-width="26" stroke-linejoin="round" mask="url(#path-6-outside-1_0_1)"/>
<path d="M123.562 142.5C123.562 137.391 127.704 133.25 132.813 133.25H139.819C141.058 133.25 142.063 134.255 142.063 135.494V135.494C142.063 137.247 143.991 138.334 145.544 137.52C148.954 135.733 152.293 134.435 155.563 133.625C159.979 132.5 164.292 131.937 168.5 131.937C174.375 131.937 179.771 132.875 184.688 134.75C186.521 135.449 188.255 136.281 189.892 137.247C194.563 140.003 200.539 140.576 205.313 138V138C207.938 136.542 210.563 135.375 213.188 134.5C215.813 133.583 218.479 132.937 221.188 132.562C223.896 132.146 226.688 131.937 229.563 131.937C235.604 131.937 241.083 132.771 246 134.437C250.917 136.062 255.104 138.5 258.563 141.75C262.063 145 264.75 149.062 266.625 153.937C268.542 158.771 269.5 164.375 269.5 170.75V197.781C269.5 202.873 265.373 207 260.281 207V207C255.19 207 251.063 202.873 251.063 197.781V173.75C251.063 169.708 250.479 166.104 249.313 162.938C248.188 159.729 246.583 157.042 244.5 154.875C242.458 152.667 240 151 237.125 149.875C234.292 148.708 231.167 148.125 227.75 148.125C225.875 148.125 223.958 148.312 222 148.687C220.042 149.021 218.125 149.562 216.25 150.312C214.417 151.062 212.688 152.021 211.063 153.187V153.187C207.942 155.348 206.813 159.25 206.813 163.046V197.781C206.813 202.873 202.685 207 197.594 207V207C192.502 207 188.375 202.873 188.375 197.781V173.75C188.375 169.708 187.792 166.104 186.625 162.938C185.5 159.729 183.896 157.042 181.813 154.875C179.771 152.667 177.292 151 174.375 149.875C171.5 148.708 168.333 148.125 164.875 148.125C162.75 148.125 160.604 148.354 158.438 148.812C156.313 149.229 154.25 149.833 152.25 150.625C150.292 151.417 148.438 152.375 146.688 153.5V153.5C143.471 155.618 142.063 159.467 142.063 163.318V197.75C142.063 202.859 137.921 207 132.813 207V207C127.704 207 123.562 202.859 123.562 197.75V142.5Z" stroke="#688097" stroke-width="26" stroke-linejoin="round" mask="url(#path-6-outside-1_0_1)"/>
<path d="M310.813 227.875C310.813 232.984 306.671 237.125 301.563 237.125V237.125C296.454 237.125 292.313 232.984 292.313 227.875V142.5C292.313 137.391 296.454 133.25 301.563 133.25H308.427C309.745 133.25 310.813 134.318 310.813 135.635V135.635C310.813 137.559 313.015 138.748 314.731 137.878C315.318 137.58 315.928 137.287 316.563 137C318.771 136 321.146 135.125 323.688 134.375C326.229 133.625 328.854 133.042 331.563 132.625C334.271 132.167 336.979 131.937 339.688 131.937C345.938 131.937 351.667 132.854 356.875 134.687C362.125 136.521 366.625 139.104 370.375 142.437C374.125 145.771 377.042 149.771 379.125 154.437C381.25 159.062 382.313 164.188 382.313 169.812C382.313 175.688 381.208 181 379 185.75C376.792 190.458 373.729 194.5 369.813 197.875C365.938 201.208 361.313 203.792 355.938 205.625C350.604 207.417 344.813 208.312 338.563 208.312C335.896 208.312 333.25 208.146 330.625 207.812C328.042 207.479 325.542 207.021 323.125 206.438C320.75 205.854 318.5 205.167 316.375 204.375V204.375C313.837 203.36 310.813 205.138 310.813 207.871V227.875ZM310.813 176.743C310.813 181.211 312.754 185.627 316.75 187.625V187.625C318.833 188.667 320.958 189.521 323.125 190.188C325.292 190.854 327.479 191.354 329.688 191.688C331.896 191.979 334.042 192.125 336.125 192.125C340.375 192.125 344.146 191.562 347.438 190.438C350.771 189.271 353.563 187.688 355.813 185.688C358.104 183.688 359.854 181.333 361.063 178.625C362.271 175.917 362.875 172.979 362.875 169.812C362.875 166.854 362.271 164.062 361.063 161.438C359.896 158.812 358.188 156.521 355.938 154.562C353.729 152.562 351.042 151 347.875 149.875C344.75 148.708 341.229 148.125 337.313 148.125C334.813 148.125 332.313 148.375 329.813 148.875C327.313 149.333 324.896 150 322.563 150.875C320.271 151.75 318.104 152.812 316.063 154.062V154.062C312.402 156.35 310.813 160.665 310.813 164.982V176.743Z" stroke="#688097" stroke-width="26" stroke-linejoin="round" mask="url(#path-6-outside-1_0_1)"/>
<path d="M400.313 112.563C400.313 107.454 404.454 103.312 409.563 103.312V103.312C414.671 103.312 418.813 107.454 418.813 112.563V197.75C418.813 202.859 414.671 207 409.563 207V207C404.454 207 400.313 202.859 400.313 197.75V112.563Z" stroke="#688097" stroke-width="26" stroke-linejoin="round" mask="url(#path-6-outside-1_0_1)"/>
<path d="M438.125 170.125C438.125 164.833 439.188 159.875 441.313 155.25C443.479 150.625 446.542 146.583 450.5 143.125C454.5 139.667 459.313 136.937 464.938 134.937C470.604 132.937 476.958 131.937 484 131.937C491.042 131.937 497.375 132.937 503 134.937C508.667 136.937 513.479 139.667 517.438 143.125C521.438 146.583 524.5 150.625 526.625 155.25C528.791 159.875 529.875 164.833 529.875 170.125C529.875 175.417 528.791 180.375 526.625 185C524.5 189.625 521.438 193.667 517.438 197.125C513.479 200.583 508.667 203.312 503 205.312C497.375 207.312 491.042 208.312 484 208.312C476.958 208.312 470.604 207.312 464.938 205.312C459.313 203.312 454.5 200.583 450.5 197.125C446.542 193.667 443.479 189.625 441.313 185C439.188 180.375 438.125 175.417 438.125 170.125ZM457.563 170.125C457.563 173.083 458.146 175.896 459.313 178.562C460.521 181.188 462.25 183.521 464.5 185.562C466.792 187.562 469.563 189.167 472.813 190.375C476.104 191.542 479.833 192.125 484 192.125C488.167 192.125 491.875 191.542 495.125 190.375C498.417 189.167 501.188 187.562 503.438 185.562C505.729 183.521 507.458 181.188 508.625 178.562C509.833 175.896 510.438 173.083 510.438 170.125C510.438 167.167 509.833 164.354 508.625 161.688C507.458 159.021 505.729 156.687 503.438 154.687C501.188 152.646 498.417 151.042 495.125 149.875C491.875 148.667 488.167 148.062 484 148.062C479.833 148.062 476.104 148.667 472.813 149.875C469.563 151.042 466.792 152.646 464.5 154.687C462.25 156.687 460.521 159.021 459.313 161.688C458.146 164.354 457.563 167.167 457.563 170.125Z" stroke="#688097" stroke-width="26" stroke-linejoin="round" mask="url(#path-6-outside-1_0_1)"/>
<path d="M554.522 222.733C556.016 219.337 560.212 218.109 563.625 219.562V219.562C565.875 220.521 568.208 221.313 570.625 221.938C573.083 222.563 575.583 223.021 578.125 223.313C580.666 223.646 583.187 223.813 585.687 223.813C594.187 223.813 600.729 221.979 605.312 218.313C609.937 214.688 612.25 209.229 612.25 201.938V201.938C612.25 200.881 611.053 200.246 610.142 200.781C609.084 201.404 607.953 201.998 606.75 202.562C604.75 203.479 602.583 204.271 600.25 204.938C597.958 205.604 595.521 206.125 592.937 206.5C590.396 206.833 587.812 207 585.187 207C579.562 207 574.521 206.188 570.062 204.562C565.646 202.896 561.896 200.479 558.812 197.312C555.771 194.104 553.437 190.167 551.812 185.5C550.187 180.833 549.375 175.5 549.375 169.5V142.469C549.375 137.377 553.502 133.25 558.594 133.25V133.25C563.685 133.25 567.812 137.377 567.812 142.469V164.375C567.812 173.292 569.5 179.875 572.875 184.125C576.291 188.333 581.666 190.438 589 190.438C594.166 190.438 598.729 189.542 602.687 187.75V187.75C609.704 184.534 612.25 176.52 612.25 168.801V142.5C612.25 137.391 616.391 133.25 621.5 133.25V133.25C626.608 133.25 630.75 137.391 630.75 142.5V198.562C630.75 205.604 629.75 211.708 627.75 216.875C625.75 222.083 622.833 226.396 619 229.813C615.208 233.229 610.541 235.771 605 237.438C599.458 239.146 593.166 240 586.125 240C579.25 240 572.833 239.271 566.875 237.813C563.589 237.008 560.455 236.046 557.473 234.924C553.477 233.422 551.847 228.812 553.566 224.906L554.522 222.733Z" stroke="#688097" stroke-width="26" stroke-linejoin="round" mask="url(#path-6-outside-1_0_1)"/>
<path d="M651.187 169.875C651.187 164.875 652.208 160.104 654.25 155.563C656.291 150.979 659.229 146.937 663.062 143.437C666.896 139.937 671.583 137.146 677.125 135.062C682.708 132.979 689.041 131.937 696.125 131.937C703.166 131.937 709.5 133 715.125 135.125C720.791 137.208 725.583 140.083 729.5 143.75C733.458 147.417 736.479 151.729 738.562 156.688C740.687 161.646 741.75 166.958 741.75 172.625C741.75 173.333 741.729 174.104 741.687 174.938V174.938C741.687 176.19 740.622 177.125 739.37 177.125H679.027C675.513 177.125 673.198 180.646 675.625 183.188V183.188C677.416 185.021 679.646 186.604 682.312 187.938C684.979 189.271 688.062 190.312 691.562 191.062C695.062 191.771 698.937 192.125 703.187 192.125C707.437 192.125 711.666 191.688 715.875 190.812C717.534 190.451 719.164 190.054 720.765 189.621C724.855 188.516 729.265 190.375 730.979 194.25V194.25C732.761 198.276 730.968 203.046 726.812 204.5V204.5C724.354 205.333 721.771 206.042 719.062 206.625C716.396 207.167 713.583 207.583 710.625 207.875C707.708 208.167 704.625 208.312 701.375 208.312C693.083 208.312 685.812 207.312 679.562 205.312C673.312 203.312 668.083 200.583 663.875 197.125C659.666 193.667 656.5 189.604 654.375 184.938C652.25 180.271 651.187 175.25 651.187 169.875ZM715.599 162.688C718.818 162.688 721.025 159.502 719 157V157C717.625 155.208 715.896 153.667 713.812 152.375C711.729 151.042 709.312 150 706.562 149.25C703.812 148.5 700.791 148.125 697.5 148.125C694 148.125 690.812 148.521 687.937 149.312C685.062 150.104 682.541 151.167 680.375 152.5C678.208 153.833 676.396 155.375 674.937 157.125V157.125C672.958 159.571 675.08 162.688 678.226 162.688H715.599Z" stroke="#688097" stroke-width="26" stroke-linejoin="round" mask="url(#path-6-outside-1_0_1)"/>
<path d="M758.187 169.875C758.187 164.875 759.208 160.104 761.25 155.563C763.291 150.979 766.229 146.937 770.062 143.437C773.896 139.937 778.583 137.146 784.125 135.062C789.708 132.979 796.041 131.937 803.125 131.937C810.166 131.937 816.5 133 822.125 135.125C827.791 137.208 832.583 140.083 836.5 143.75C840.458 147.417 843.479 151.729 845.562 156.688C847.687 161.646 848.75 166.958 848.75 172.625C848.75 173.333 848.729 174.104 848.687 174.938V174.938C848.687 176.19 847.622 177.125 846.37 177.125H786.027C782.513 177.125 780.198 180.646 782.625 183.188V183.188C784.416 185.021 786.646 186.604 789.312 187.938C791.979 189.271 795.062 190.312 798.562 191.062C802.062 191.771 805.937 192.125 810.187 192.125C814.437 192.125 818.666 191.688 822.875 190.812C824.534 190.451 826.164 190.054 827.765 189.621C831.855 188.516 836.265 190.375 837.979 194.25V194.25C839.761 198.276 837.968 203.046 833.812 204.5V204.5C831.354 205.333 828.771 206.042 826.062 206.625C823.396 207.167 820.583 207.583 817.625 207.875C814.708 208.167 811.625 208.312 808.375 208.312C800.083 208.312 792.812 207.312 786.562 205.312C780.312 203.312 775.083 200.583 770.875 197.125C766.666 193.667 763.5 189.604 761.375 184.938C759.25 180.271 758.187 175.25 758.187 169.875ZM822.599 162.688C825.818 162.688 828.025 159.502 826 157V157C824.625 155.208 822.896 153.667 820.812 152.375C818.729 151.042 816.312 150 813.562 149.25C810.812 148.5 807.791 148.125 804.5 148.125C801 148.125 797.812 148.521 794.937 149.312C792.062 150.104 789.541 151.167 787.375 152.5C785.208 153.833 783.396 155.375 781.937 157.125V157.125C779.958 159.571 782.08 162.688 785.226 162.688H822.599Z" stroke="#688097" stroke-width="26" stroke-linejoin="round" mask="url(#path-6-outside-1_0_1)"/>
<path d="M867.642 191.344C869.828 187.52 874.719 186.292 878.785 187.988C881.75 189.226 884.864 190.23 888.125 191C894.125 192.417 900.271 193.125 906.562 193.125C910.812 193.125 914.354 192.833 917.187 192.25C920.021 191.667 922.291 190.917 924 190C925.708 189.083 926.916 188.042 927.625 186.875C928.333 185.708 928.687 184.521 928.687 183.312C928.687 181.562 927.916 180.062 926.375 178.812C924.875 177.562 922.375 176.938 918.875 176.938C917.25 176.938 915.5 177.042 913.625 177.25C911.75 177.458 909.771 177.688 907.687 177.938C905.646 178.146 903.5 178.354 901.25 178.562C899.041 178.771 896.791 178.875 894.5 178.875C889.5 178.875 885.229 178.333 881.687 177.25C878.187 176.167 875.333 174.688 873.125 172.812C870.916 170.938 869.312 168.729 868.312 166.187C867.312 163.604 866.812 160.833 866.812 157.875C866.812 154.125 867.687 150.667 869.437 147.5C871.187 144.333 873.687 141.604 876.937 139.312C880.187 136.979 884.104 135.167 888.687 133.875C893.312 132.583 898.458 131.937 904.125 131.937C907.083 131.937 910.166 132.125 913.375 132.5C916.625 132.833 919.812 133.292 922.937 133.875C926.062 134.458 929.062 135.146 931.937 135.937C931.976 135.948 932.015 135.958 932.054 135.968C936.26 137.071 938.235 141.658 936.605 145.69V145.69C935.015 149.621 930.594 151.54 926.521 150.358C924.222 149.691 921.924 149.113 919.625 148.625C914.958 147.583 910.146 147.062 905.187 147.062C901.729 147.062 898.791 147.333 896.375 147.875C894 148.375 892.062 149.062 890.562 149.937C889.062 150.771 887.958 151.75 887.25 152.875C886.583 153.958 886.25 155.104 886.25 156.312C886.25 157.188 886.416 157.979 886.75 158.688C887.125 159.396 887.708 160.021 888.5 160.562C889.333 161.062 890.396 161.458 891.687 161.75C893.021 162 894.646 162.125 896.562 162.125C898.312 162.125 900.166 162.021 902.125 161.813C904.083 161.604 906.125 161.396 908.25 161.188C910.375 160.938 912.562 160.708 914.812 160.5C917.104 160.292 919.437 160.188 921.812 160.188C926.229 160.188 930.083 160.708 933.375 161.75C936.708 162.792 939.458 164.25 941.625 166.125C943.791 168 945.416 170.208 946.5 172.75C947.583 175.292 948.125 178.062 948.125 181.062C948.125 184.938 947.229 188.542 945.437 191.875C943.646 195.208 940.979 198.104 937.437 200.562C933.896 202.979 929.479 204.875 924.187 206.25C918.937 207.625 912.854 208.312 905.937 208.312C901.687 208.312 897.583 208.042 893.625 207.5C889.666 207 885.896 206.312 882.312 205.438C878.729 204.521 875.354 203.458 872.187 202.25C871.778 202.092 871.372 201.932 870.972 201.77C866.861 200.114 865.443 195.193 867.642 191.344V191.344Z" stroke="#688097" stroke-width="26" stroke-linejoin="round" mask="url(#path-6-outside-1_0_1)"/>
<path d="M607 30C542 15.5 424 7.72221 422 40.5C421.009 56.7361 451 36.5 545.5 45C640 45 750 96 750 96C718 57 658 40.5 607 30Z" fill="#DEEFFF"/>
<path d="M400.5 35C400.5 42.1797 380.374 47.5 368.5 47.5C356.626 47.5 343 48.6797 343 41.5C343 34.3203 356 27 368.5 25C381 23 400.5 27.8203 400.5 35Z" fill="#DEEFFF"/>
<defs>
<filter id="filter0_f_0_1" x="104" y="-48" width="755" height="390" filterUnits="userSpaceOnUse" color-interpolation-filters="sRGB">
<feFlood flood-opacity="0" result="BackgroundImageFix"/>
<feBlend mode="normal" in="SourceGraphic" in2="BackgroundImageFix" result="shape"/>
<feGaussianBlur stdDeviation="24" result="effect1_foregroundBlur_0_1"/>
</filter>
<filter id="filter1_f_0_1" x="133.2" y="-26.8" width="694.6" height="303.6" filterUnits="userSpaceOnUse" color-interpolation-filters="sRGB">
<feFlood flood-opacity="0" result="BackgroundImageFix"/>
<feBlend mode="normal" in="SourceGraphic" in2="BackgroundImageFix" result="shape"/>
<feGaussianBlur stdDeviation="18.4" result="effect1_foregroundBlur_0_1"/>
</filter>
</defs>
</svg>
